<svg width="183" height="31" viewBox="0 0 183 31" fill="none" xmlns="http://www.w3.org/2000/svg">
<path d="M48.9834 23.2944C48.1359 23.2944 47.3186 23.2111 46.5317 23.0447C45.7599 22.8782 45.0713 22.6134 44.4659 22.2502C43.8606 21.8718 43.3763 21.3875 43.0131 20.7973C42.665 20.2071 42.491 19.4807 42.491 18.618C42.491 18.5424 42.491 18.4667 42.491 18.391C42.5061 18.3154 42.5137 18.2397 42.5137 18.164H44.6929C44.6929 18.2094 44.6854 18.2851 44.6702 18.391C44.6702 18.4818 44.6702 18.5651 44.6702 18.6407C44.6702 19.2461 44.8518 19.7606 45.2151 20.1844C45.5783 20.6081 46.0777 20.9259 46.7133 21.1378C47.3641 21.3346 48.098 21.4329 48.9153 21.4329C49.2785 21.4329 49.6568 21.4102 50.0503 21.3648C50.4589 21.3194 50.8448 21.2438 51.208 21.1378C51.5864 21.0167 51.9193 20.8654 52.2069 20.6838C52.5095 20.4871 52.7441 20.2525 52.9106 19.9801C53.0922 19.6925 53.183 19.3445 53.183 18.9359C53.183 18.4213 53.0316 17.9976 52.729 17.6646C52.4414 17.3165 52.0555 17.0366 51.5712 16.8247C51.087 16.5977 50.5346 16.401 49.9141 16.2345C49.3087 16.0529 48.6807 15.8788 48.0299 15.7124C47.3792 15.5459 46.7436 15.3567 46.1231 15.1449C45.5177 14.9178 44.9729 14.6454 44.4886 14.3276C44.0044 13.9947 43.6109 13.5861 43.3082 13.1018C43.0207 12.6175 42.8769 12.0273 42.8769 11.3311C42.8769 10.6804 43.0055 10.0977 43.2628 9.58319C43.5352 9.06865 43.9287 8.63733 44.4432 8.28926C44.9729 7.92605 45.6237 7.65364 46.3955 7.47203C47.1673 7.27529 48.0526 7.17693 49.0515 7.17693C49.8687 7.17693 50.6254 7.26773 51.3215 7.44933C52.0328 7.6158 52.6533 7.88065 53.183 8.24386C53.7278 8.59193 54.1515 9.03838 54.4542 9.58319C54.7569 10.128 54.9082 10.7863 54.9082 11.5581V11.8306H52.7744V11.49C52.7744 10.9755 52.6155 10.5366 52.2977 10.1734C51.9798 9.8102 51.541 9.53022 50.981 9.33349C50.4362 9.13675 49.8157 9.03838 49.1196 9.03838C48.2115 9.03838 47.4549 9.12918 46.8495 9.31079C46.2442 9.47726 45.7901 9.72696 45.4875 10.0599C45.1999 10.3777 45.0562 10.7409 45.0562 11.1495C45.0562 11.6187 45.1999 12.0122 45.4875 12.33C45.7901 12.6478 46.1836 12.9126 46.6679 13.1245C47.1522 13.3212 47.7046 13.5028 48.325 13.6693C48.9455 13.8358 49.5736 14.0098 50.2092 14.1914C50.8599 14.3579 51.488 14.5546 52.0934 14.7816C52.7138 14.9935 53.2662 15.2659 53.7505 15.5989C54.2499 15.9167 54.6434 16.3253 54.9309 16.8247C55.2185 17.309 55.3622 17.9068 55.3622 18.618C55.3622 19.7228 55.0898 20.6233 54.545 21.3194C54.0002 22.0004 53.2511 22.4999 52.2977 22.8177C51.3442 23.1355 50.2395 23.2944 48.9834 23.2944ZM68.2462 23.022V9.33349H62.9115V7.44933H75.7828V9.33349H70.4028V23.022H68.2462ZM84.0947 23.022V7.44933H92.2896C93.349 7.44933 94.2268 7.64607 94.9229 8.03955C95.6342 8.41789 96.1639 8.95514 96.512 9.65129C96.86 10.3323 97.0341 11.1193 97.0341 12.0122C97.0341 13.0867 96.7919 14.0098 96.3076 14.7816C95.8234 15.5535 95.1575 16.1058 94.31 16.4388L97.5789 23.022H95.218L92.1761 16.8247H86.2513V23.022H84.0947ZM86.2513 14.9859H92.0853C92.948 14.9859 93.6214 14.7211 94.1057 14.1914C94.6051 13.6617 94.8548 12.9353 94.8548 12.0122C94.8548 11.4371 94.7489 10.9528 94.537 10.5593C94.3251 10.1658 94.0149 9.86317 93.6063 9.65129C93.1977 9.42429 92.6907 9.31079 92.0853 9.31079H86.2513V14.9859ZM104.69 23.022L110.842 7.44933H113.68L119.854 23.022H117.516L115.995 19.1629H108.413L106.915 23.022H104.69ZM109.117 17.3241H115.269L113.385 12.4435C113.339 12.3073 113.271 12.1181 113.18 11.876C113.09 11.6338 112.991 11.369 112.885 11.0814C112.779 10.7788 112.673 10.4761 112.567 10.1734C112.461 9.8556 112.363 9.56806 112.272 9.31079H112.136C112.03 9.61346 111.909 9.96154 111.773 10.355C111.637 10.7485 111.5 11.1344 111.364 11.5127C111.228 11.876 111.115 12.1862 111.024 12.4435L109.117 17.3241ZM129.694 23.022V9.33349H124.359V7.44933H137.23V9.33349H131.85V23.022H129.694ZM152.002 23.2944C150.383 23.2944 148.99 22.9993 147.825 22.4091C146.675 21.8188 145.782 20.9259 145.146 19.7304C144.526 18.5348 144.215 17.0366 144.215 15.2357C144.215 13.4196 144.526 11.9214 145.146 10.7409C145.782 9.54536 146.675 8.65247 147.825 8.06225C148.99 7.47203 150.383 7.17693 152.002 7.17693C153.621 7.17693 155.006 7.47203 156.156 8.06225C157.321 8.65247 158.214 9.54536 158.835 10.7409C159.47 11.9214 159.788 13.4196 159.788 15.2357C159.788 17.0366 159.47 18.5348 158.835 19.7304C158.214 20.9259 157.321 21.8188 156.156 22.4091C155.006 22.9993 153.621 23.2944 152.002 23.2944ZM152.002 21.4329C152.849 21.4329 153.614 21.3194 154.295 21.0924C154.991 20.8654 155.573 20.5098 156.043 20.0255C156.527 19.5261 156.898 18.9056 157.155 18.164C157.412 17.4073 157.541 16.5145 157.541 15.4854V15.0086C157.541 13.9644 157.412 13.0715 157.155 12.33C156.898 11.5733 156.527 10.9528 156.043 10.4685C155.573 9.9691 154.991 9.60589 154.295 9.37889C153.614 9.15188 152.849 9.03838 152.002 9.03838C151.139 9.03838 150.367 9.15188 149.686 9.37889C149.005 9.60589 148.423 9.9691 147.938 10.4685C147.454 10.9528 147.083 11.5733 146.826 12.33C146.584 13.0715 146.463 13.9644 146.463 15.0086V15.4854C146.463 16.5145 146.584 17.4073 146.826 18.164C147.083 18.9056 147.454 19.5261 147.938 20.0255C148.423 20.5098 149.005 20.8654 149.686 21.0924C150.367 21.3194 151.139 21.4329 152.002 21.4329ZM174.516 23.2944C173.669 23.2944 172.851 23.2111 172.064 23.0447C171.293 22.8782 170.604 22.6134 169.999 22.2502C169.393 21.8718 168.909 21.3875 168.546 20.7973C168.198 20.2071 168.024 19.4807 168.024 18.618C168.024 18.5424 168.024 18.4667 168.024 18.391C168.039 18.3154 168.046 18.2397 168.046 18.164H170.226C170.226 18.2094 170.218 18.2851 170.203 18.391C170.203 18.4818 170.203 18.5651 170.203 18.6407C170.203 19.2461 170.385 19.7606 170.748 20.1844C171.111 20.6081 171.61 20.9259 172.246 21.1378C172.897 21.3346 173.631 21.4329 174.448 21.4329C174.811 21.4329 175.19 21.4102 175.583 21.3648C175.992 21.3194 176.378 21.2438 176.741 21.1378C177.119 21.0167 177.452 20.8654 177.74 20.6838C178.042 20.4871 178.277 20.2525 178.443 19.9801C178.625 19.6925 178.716 19.3445 178.716 18.9359C178.716 18.4213 178.564 17.9976 178.262 17.6646C177.974 17.3165 177.588 17.0366 177.104 16.8247C176.62 16.5977 176.067 16.401 175.447 16.2345C174.842 16.0529 174.213 15.8788 173.563 15.7124C172.912 15.5459 172.276 15.3567 171.656 15.1449C171.051 14.9178 170.506 14.6454 170.021 14.3276C169.537 13.9947 169.144 13.5861 168.841 13.1018C168.553 12.6175 168.41 12.0273 168.41 11.3311C168.41 10.6804 168.538 10.0977 168.796 9.58319C169.068 9.06865 169.461 8.63733 169.976 8.28926C170.506 7.92605 171.156 7.65364 171.928 7.47203C172.7 7.27529 173.585 7.17693 174.584 7.17693C175.401 7.17693 176.158 7.26773 176.854 7.44933C177.566 7.6158 178.186 7.88065 178.716 8.24386C179.261 8.59193 179.684 9.03838 179.987 9.58319C180.29 10.128 180.441 10.7863 180.441 11.5581V11.8306H178.307V11.49C178.307 10.9755 178.148 10.5366 177.83 10.1734C177.513 9.8102 177.074 9.53022 176.514 9.33349C175.969 9.13675 175.349 9.03838 174.652 9.03838C173.744 9.03838 172.988 9.12918 172.382 9.31079C171.777 9.47726 171.323 9.72696 171.02 10.0599C170.733 10.3777 170.589 10.7409 170.589 11.1495C170.589 11.6187 170.733 12.0122 171.02 12.33C171.323 12.6478 171.716 12.9126 172.201 13.1245C172.685 13.3212 173.237 13.5028 173.858 13.6693C174.478 13.8358 175.106 14.0098 175.742 14.1914C176.393 14.3579 177.021 14.5546 177.626 14.7816C178.247 14.9935 178.799 15.2659 179.283 15.5989C179.783 15.9167 180.176 16.3253 180.464 16.8247C180.751 17.309 180.895 17.9068 180.895 18.618C180.895 19.7228 180.623 20.6233 180.078 21.3194C179.533 22.0004 178.784 22.4999 177.83 22.8177C176.877 23.1355 175.772 23.2944 174.516 23.2944Z" fill="#43B78B"/>
<path fill-rule="evenodd" clip-rule="evenodd" d="M22.6786 23.0231C22.6786 25.5943 20.5996 27.6748 18.0399 27.6748C15.4804 27.6748 13.4014 25.5943 13.4014 23.0231C13.4014 22.2865 13.5713 21.5925 13.8732 20.9758L11.9168 19.3774L11.8713 19.3503C11.2321 20.4263 10.8655 21.6838 10.8655 23.0231C10.8655 26.9913 14.0754 30.2121 18.0399 30.2121C22.0045 30.2121 25.2145 26.9913 25.2145 23.0231C25.2145 19.0548 22.0045 15.834 18.0399 15.834H0.601562L5.21854 19.4991V18.3713H18.0399C20.5996 18.3713 22.6786 20.4518 22.6786 23.0231Z" fill="#43B78B"/>
<path fill-rule="evenodd" clip-rule="evenodd" d="M12.9822 7.93853C12.9822 5.36729 15.0611 3.28682 17.6208 3.28682C20.1805 3.28682 22.2594 5.36729 22.2594 7.93853C22.2594 8.67509 22.0895 9.36905 21.7875 9.98574L23.744 11.5842L23.7895 11.6112C24.4286 10.5353 24.7954 9.27783 24.7954 7.93853C24.7954 3.97031 21.5853 0.749512 17.6208 0.749512C13.6562 0.749512 10.4463 3.97031 10.4463 7.93853C10.4463 11.9067 13.6562 15.1275 17.6208 15.1275H35.0593L30.4423 11.4626V12.5902H17.6208C15.0611 12.5902 12.9822 10.5098 12.9822 7.93853Z" fill="#43B78B"/>
</svg>
