<?xml version="1.0" encoding="utf-8"?>
<!-- Generator: Adobe Illustrator 24.3.0, SVG Export Plug-In . SVG Version: 6.00 Build 0)  -->
<svg version="1.1" xmlns="http://www.w3.org/2000/svg" xmlns:xlink="http://www.w3.org/1999/xlink" x="0px" y="0px"
	 viewBox="0 0 900 900" style="enable-background:new 0 0 900 900;" xml:space="preserve">
<style type="text/css">
	.st0{fill-rule:evenodd;clip-rule:evenodd;fill:#00847B;}
	.st1{fill:url(#SVGID_1_);}
	.st2{fill-rule:evenodd;clip-rule:evenodd;fill:#FFFFFF;}
	.st3{fill:url(#SVGID_2_);}
	.st4{fill:url(#SVGID_3_);}
	.st5{fill:url(#SVGID_4_);}
	.st6{fill:url(#SVGID_5_);}
</style>
<g id="Layer_2">
</g>
<g id="Layer_1">
	<g>
		<path class="st0" d="M547.5,600.9c0,51.4-41.8,93.1-93.3,93.1c-51.5,0-93.3-41.6-93.3-93.1c0-14.7,3.4-28.6,9.5-41L331,528
			l-0.9-0.5c-12.9,21.5-20.2,46.7-20.2,73.5c0,79.4,64.6,143.8,144.3,143.8s144.3-64.4,144.3-143.8c0-79.4-64.6-143.8-144.3-143.8
			H103.4l92.9,73.3v-22.6h257.9C505.7,507.8,547.5,549.5,547.5,600.9z"/>
		<path class="st0" d="M352.5,299.1c0-51.4,41.8-93.1,93.3-93.1s93.3,41.6,93.3,93.1c0,14.7-3.4,28.6-9.5,41l39.4,32l0.9,0.5
			c12.9-21.5,20.2-46.7,20.2-73.5c0-79.4-64.6-143.8-144.3-143.8s-144.3,64.4-144.3,143.8c0,79.4,64.6,143.8,144.3,143.8h350.8
			l-92.9-73.3v22.6H445.8C394.3,392.2,352.5,350.5,352.5,299.1z"/>
	</g>
	<linearGradient id="SVGID_1_" gradientUnits="userSpaceOnUse" x1="923.9133" y1="346.1052" x2="1762.3573" y2="346.1052">
		<stop  offset="3.936477e-02" style="stop-color:#06FCE9"/>
		<stop  offset="0.6559" style="stop-color:#00847B"/>
	</linearGradient>
	<circle class="st1" cx="1370" cy="346.1" r="313.2"/>
	<g>
		<path class="st2" d="M1446.8,464.9c0,40.5-32.9,73.2-73.4,73.2c-40.5,0-73.4-32.8-73.4-73.2c0-11.6,2.7-22.5,7.5-32.2l-31-25.2
			l-0.7-0.4c-10.1,16.9-15.9,36.7-15.9,57.8c0,62.5,50.8,113.2,113.6,113.2c62.8,0,113.6-50.7,113.6-113.2
			c0-62.5-50.8-113.2-113.6-113.2h-276.1l73.1,57.7v-17.8h203C1413.8,391.6,1446.8,424.4,1446.8,464.9z"/>
		<path class="st2" d="M1293.2,227.3c0-40.5,32.9-73.2,73.4-73.2c40.5,0,73.4,32.8,73.4,73.2c0,11.6-2.7,22.5-7.5,32.2l31,25.2
			l0.7,0.4c10.1-16.9,15.9-36.7,15.9-57.8c0-62.5-50.8-113.2-113.6-113.2c-62.8,0-113.6,50.7-113.6,113.2
			c0,62.5,50.8,113.2,113.6,113.2h276.1l-73.1-57.7v17.8h-203C1326.2,300.6,1293.2,267.8,1293.2,227.3z"/>
	</g>
	<linearGradient id="SVGID_2_" gradientUnits="userSpaceOnUse" x1="1009.5474" y1="794.5612" x2="1795.3033" y2="787.1484">
		<stop  offset="3.936477e-02" style="stop-color:#06FCE9"/>
		<stop  offset="0.4084" style="stop-color:#00847B"/>
	</linearGradient>
	<path class="st3" d="M1082.4,821.4l19.7-1.7c0.9,7.9,3.1,14.3,6.5,19.4c3.4,5,8.7,9.1,15.8,12.2c7.2,3.1,15.2,4.7,24.2,4.7
		c7.9,0,15-1.2,21.1-3.5c6.1-2.4,10.6-5.6,13.6-9.7c3-4.1,4.5-8.6,4.5-13.5c0-4.9-1.4-9.3-4.3-12.9c-2.9-3.7-7.6-6.8-14.2-9.3
		c-4.2-1.6-13.6-4.2-28-7.7c-14.5-3.5-24.6-6.7-30.4-9.8c-7.5-3.9-13.1-8.8-16.8-14.7c-3.7-5.8-5.5-12.4-5.5-19.6
		c0-7.9,2.3-15.4,6.8-22.3c4.5-6.9,11.1-12.2,19.8-15.7c8.7-3.6,18.3-5.4,28.9-5.4c11.7,0,22,1.9,30.9,5.6s15.8,9.3,20.6,16.6
		c4.8,7.3,7.4,15.6,7.7,24.8l-20,1.5c-1.1-10-4.7-17.5-10.9-22.6c-6.2-5.1-15.3-7.6-27.4-7.6c-12.6,0-21.8,2.3-27.6,6.9
		c-5.8,4.6-8.6,10.2-8.6,16.7c0,5.7,2,10.3,6.1,14c4,3.7,14.5,7.4,31.4,11.2c16.9,3.8,28.6,7.2,34.9,10c9.2,4.2,15.9,9.6,20.3,16.1
		c4.4,6.5,6.6,13.9,6.6,22.4c0,8.4-2.4,16.3-7.2,23.7c-4.8,7.4-11.7,13.2-20.7,17.3c-9,4.1-19.1,6.2-30.3,6.2
		c-14.3,0-26.2-2.1-35.8-6.2c-9.6-4.2-17.2-10.4-22.7-18.7C1085.5,841.4,1082.7,831.9,1082.4,821.4z"/>
	<linearGradient id="SVGID_3_" gradientUnits="userSpaceOnUse" x1="1009.5575" y1="795.6373" x2="1795.3135" y2="788.2245">
		<stop  offset="3.936477e-02" style="stop-color:#06FCE9"/>
		<stop  offset="0.6559" style="stop-color:#00847B"/>
	</linearGradient>
	<path class="st4" d="M1276.3,872V733.1h-51.9v-18.6h124.8v18.6h-52.1V872H1276.3z"/>
	<linearGradient id="SVGID_4_" gradientUnits="userSpaceOnUse" x1="1009.5726" y1="797.233" x2="1795.3285" y2="789.8203">
		<stop  offset="3.936477e-02" style="stop-color:#06FCE9"/>
		<stop  offset="0.6559" style="stop-color:#00847B"/>
	</linearGradient>
	<path class="st5" d="M1360.3,795.3c0-26.1,7-46.6,21.1-61.4c14-14.8,32.2-22.2,54.4-22.2c14.5,0,27.6,3.5,39.3,10.4
		c11.7,6.9,20.6,16.6,26.7,29.1c6.1,12.4,9.2,26.5,9.2,42.3c0,16-3.2,30.3-9.7,42.9c-6.4,12.6-15.6,22.1-27.4,28.6
		c-11.8,6.5-24.6,9.7-38.2,9.7c-14.8,0-28.1-3.6-39.7-10.7c-11.7-7.2-20.5-16.9-26.5-29.3C1363.3,822.2,1360.3,809.1,1360.3,795.3z
		 M1381.8,795.6c0,19,5.1,33.9,15.3,44.8c10.2,10.9,23,16.4,38.4,16.4c15.7,0,28.6-5.5,38.7-16.5c10.1-11,15.2-26.7,15.2-46.9
		c0-12.8-2.2-24-6.5-33.6c-4.3-9.6-10.7-17-19-22.2c-8.3-5.3-17.7-7.9-28.1-7.9c-14.8,0-27.4,5.1-38.1,15.2
		C1387.1,755,1381.8,771.9,1381.8,795.6z"/>
	<linearGradient id="SVGID_5_" gradientUnits="userSpaceOnUse" x1="1009.5873" y1="798.7897" x2="1795.3433" y2="791.377">
		<stop  offset="3.936477e-02" style="stop-color:#06FCE9"/>
		<stop  offset="0.6559" style="stop-color:#00847B"/>
	</linearGradient>
	<path class="st6" d="M1530.6,821.4l19.7-1.7c0.9,7.9,3.1,14.3,6.5,19.4c3.4,5,8.7,9.1,15.8,12.2c7.2,3.1,15.2,4.7,24.2,4.7
		c7.9,0,15-1.2,21.1-3.5c6.1-2.4,10.6-5.6,13.6-9.7c3-4.1,4.5-8.6,4.5-13.5c0-4.9-1.4-9.3-4.3-12.9c-2.9-3.7-7.6-6.8-14.2-9.3
		c-4.2-1.6-13.6-4.2-28-7.7c-14.5-3.5-24.6-6.7-30.4-9.8c-7.5-3.9-13.1-8.8-16.8-14.7c-3.7-5.8-5.5-12.4-5.5-19.6
		c0-7.9,2.3-15.4,6.8-22.3c4.5-6.9,11.1-12.2,19.8-15.7c8.7-3.6,18.3-5.4,28.9-5.4c11.7,0,22,1.9,30.9,5.6s15.8,9.3,20.6,16.6
		c4.8,7.3,7.4,15.6,7.7,24.8l-20,1.5c-1.1-10-4.7-17.5-10.9-22.6c-6.2-5.1-15.3-7.6-27.4-7.6c-12.6,0-21.8,2.3-27.6,6.9
		c-5.8,4.6-8.6,10.2-8.6,16.7c0,5.7,2,10.3,6.1,14c4,3.7,14.5,7.4,31.4,11.2c16.9,3.8,28.6,7.2,34.9,10c9.2,4.2,15.9,9.6,20.3,16.1
		c4.4,6.5,6.6,13.9,6.6,22.4c0,8.4-2.4,16.3-7.2,23.7c-4.8,7.4-11.7,13.2-20.7,17.3c-9,4.1-19.1,6.2-30.3,6.2
		c-14.3,0-26.2-2.1-35.8-6.2c-9.6-4.2-17.2-10.4-22.7-18.7C1533.8,841.4,1530.9,831.9,1530.6,821.4z"/>
</g>
</svg>
